<mxfile host="app.diagrams.net" modified="2024-03-21T10:17:18.161Z" agent="Mozilla/5.0 (Windows NT 10.0; Win64; x64) AppleWebKit/537.36 (KHTML, like Gecko) Chrome/122.0.0.0 Safari/537.36" version="24.0.7" etag="DFOKH_M0mjZGRNMBRZyX" type="github">
  <diagram name="Page-1" id="Qbp6g7OmeUquvPP_OFD2">
    <mxGraphModel>
      <root>
        <mxCell id="0" />
        <mxCell id="1" parent="0" />
      </root>
    </mxGraphModel>
  </diagram>
</mxfile>
